<?xml version="1.0" encoding="UTF-8" standalone="no"?>
<!-- Generator: Adobe Illustrator 19.0.0, SVG Export Plug-In . SVG Version: 6.00 Build 0)  -->

<svg
   version="1.1"
   id="Layer_1"
   x="0px"
   y="0px"
   viewBox="0 0 512 512"
   style="enable-background:new 0 0 512 512;"
   xml:space="preserve"
   sodipodi:docname="group-team-svgrepo-com.svg"
   inkscape:version="1.1.1 (3bf5ae0d25, 2021-09-20)"
   inkscape:export-xdpi="12"
   inkscape:export-ydpi="12"
   xmlns:inkscape="http://www.inkscape.org/namespaces/inkscape"
   xmlns:sodipodi="http://sodipodi.sourceforge.net/DTD/sodipodi-0.dtd"
   xmlns="http://www.w3.org/2000/svg"
   xmlns:svg="http://www.w3.org/2000/svg"><defs
   id="defs53" /><sodipodi:namedview
   id="namedview51"
   pagecolor="#ffffff"
   bordercolor="#666666"
   borderopacity="1.0"
   inkscape:pageshadow="2"
   inkscape:pageopacity="0.0"
   inkscape:pagecheckerboard="0"
   showgrid="false"
   inkscape:zoom="1.09375"
   inkscape:cx="256.91429"
   inkscape:cy="256.45714"
   inkscape:window-width="1366"
   inkscape:window-height="745"
   inkscape:window-x="-8"
   inkscape:window-y="-8"
   inkscape:window-maximized="1"
   inkscape:current-layer="Layer_1" />
<g
   id="g16"
   style="display:inline;fill:#ffe6c0;fill-opacity:1"
   inkscape:export-filename="C:\Users\zwero\Downloads\g16.png"
   inkscape:export-xdpi="6"
   inkscape:export-ydpi="6">
		<g
   id="g14"
   style="display:inline;fill:#ffe6c0;fill-opacity:1">
			<path
   d="m 96.01,106.667 c 29.397,0 53.333,-23.936 53.333,-53.333 C 149.343,23.937 125.407,0 96.01,0 66.613,0 42.676,23.936 42.676,53.333 c 0,29.397 23.936,53.334 53.334,53.334 z m 0,-85.334 c 17.643,0 32,14.357 32,32 0,17.643 -14.357,32 -32,32 -17.643,0 -32,-14.357 -32,-32 0,-17.642 14.357,-32 32,-32 z"
   id="path2"
   style="fill:#ffe6c0;fill-opacity:1" />
			<path
   d="m 247.178,128 c 29.397,0 53.333,-23.936 53.333,-53.333 0,-29.397 -23.936,-53.333 -53.333,-53.333 -29.397,0 -53.333,23.936 -53.333,53.333 0,29.397 23.935,53.333 53.333,53.333 z m 0,-85.333 c 17.643,0 32,14.357 32,32 0,17.643 -14.357,32 -32,32 -17.643,0 -32,-14.357 -32,-32 0,-17.643 14.357,-32 32,-32 z"
   id="path4"
   style="fill:#ffe6c0;fill-opacity:1" />
			<path
   d="M 191.732,303.723 177.61,179.819 C 174.26,150.272 150.858,128 123.231,128 H 68.746 c -27.627,0 -51.008,22.272 -54.379,51.819 L 0.244,303.723 c -1.173,10.368 2.027,20.672 8.768,28.224 5.824,6.507 13.547,10.304 21.909,10.773 l 11.776,159.403 c 0.427,5.568 5.056,9.877 10.645,9.877 h 85.333 c 5.589,0 10.219,-4.309 10.603,-9.877 L 161.054,342.72 c 8.363,-0.469 16.107,-4.245 21.909,-10.773 6.764,-7.574 9.964,-17.856 8.769,-28.224 z m -24.661,14.016 c -1.216,1.365 -3.883,3.691 -7.808,3.691 h -8.085 c -5.589,0 -10.24,4.309 -10.645,9.877 l -11.776,159.36 H 63.242 L 51.487,331.307 C 51.06,325.739 46.431,321.43 40.842,321.43 h -8.085 c -3.925,0 -6.571,-2.325 -7.808,-3.691 -2.709,-3.051 -3.989,-7.275 -3.499,-11.605 L 35.573,182.23 c 2.133,-18.752 16.405,-32.896 33.195,-32.896 h 54.485 c 16.768,0 31.04,14.144 33.195,32.896 l 14.123,123.904 c 0.489,4.33 -0.791,8.554 -3.5,11.605 z"
   id="path6"
   style="fill:#ffe6c0;fill-opacity:1" />
			<path
   d="m 508.874,323.115 -42.667,-42.667 c -4.16,-4.16 -10.923,-4.16 -15.083,0 L 280.458,451.115 c -1.984,2.005 -3.115,4.715 -3.115,7.552 v 42.667 c 0,5.888 4.779,10.667 10.667,10.667 h 42.667 c 2.837,0 5.547,-1.131 7.531,-3.136 L 466.144,380.929 c 0.021,-0.021 0.043,-0.021 0.064,-0.043 0.021,-0.021 0.021,-0.043 0.043,-0.064 l 42.624,-42.624 c 4.159,-4.161 4.159,-10.923 -10e-4,-15.083 z M 326.26,490.667 h -27.584 v -27.584 l 117.334,-117.334 27.584,27.584 z m 132.416,-132.416 -27.584,-27.584 27.584,-27.584 27.584,27.584 z"
   id="path8"
   style="fill:#ffe6c0;fill-opacity:1" />
			<path
   d="m 245.343,469.355 h -30.912 l -7.68,-107.456 c -0.405,-5.867 -5.525,-10.56 -11.392,-9.877 -5.867,0.405 -10.304,5.525 -9.877,11.392 l 8.384,117.355 c 0.405,5.568 5.056,9.899 10.645,9.899 h 40.832 c 5.888,0 10.667,-4.757 10.667,-10.645 0,-5.89 -4.779,-10.668 -10.667,-10.668 z"
   id="path10"
   style="fill:#ffe6c0;fill-opacity:1" />
			<path
   d="m 305.247,198.72 13.675,109.312 c 0.384,3.072 -0.533,6.059 -2.581,8.384 -2.069,2.325 -4.885,3.605 -8,3.605 h -7.829 c -5.611,0 -10.24,4.309 -10.645,9.899 l -4.245,59.413 c -0.427,5.867 4.011,10.965 9.877,11.392 0.256,0.021 0.512,0.021 0.768,0.021 5.547,0 10.24,-4.309 10.581,-9.877 l 3.563,-49.579 c 8.405,-0.555 16.277,-4.395 21.888,-10.752 6.08,-6.891 8.896,-16.043 7.765,-25.152 L 326.389,196.074 c -3.307,-26.645 -26.069,-46.72 -52.907,-46.72 H 220.81 c -5.909,0 -11.904,1.045 -17.771,3.136 -5.547,1.963 -8.448,8.064 -6.485,13.611 1.984,5.547 8.064,8.469 13.611,6.485 3.584,-1.259 7.168,-1.899 10.667,-1.899 h 52.672 c 16.106,10e-4 29.738,12.054 31.743,28.033 z"
   id="path12"
   style="fill:#ffe6c0;fill-opacity:1" />
		</g>
	</g>















</svg>
